<?xml version="1.0" encoding="UTF-8"?>
<svg xmlns="http://www.w3.org/2000/svg" style="display: none;">
	<symbol id="logo-mv" viewBox="0 0 100 32">
		<defs>
			<path d="M0.056 0.066L28.053 0.066 28.053 20.275 0.056 20.275z" />
		</defs>
		<path d="M10.154.172c.993-.698 1.61.903 2.227 1.706 2.462 3.2 5.825 5.838 9.726 7.713 1.86.895 6.443 2.945 6.606-.741.023-.515-.153-1.566-.37-2.3-.205-.687-.62-1.567 0-1.854.704-.327 1.482.966 2.004 1.78 1.433 2.24 2.614 5.505 2.598 8.975-.01 1.945-.678 3.118-2.45 3.337-1.419.176-3.095-.275-4.306-.667-6.032-1.952-10.593-5.964-13.585-10.903-.922-1.523-1.661-3.151-2.227-5.117-.166-.579-.588-1.276-.223-1.929" transform="translate(-115 -6361) translate(0 5483) translate(115 878)" />
		<path d="M32.277 19.752c-1.106 4.02-3.146 6.736-6.162 8.9-2.727 1.958-6.85 3.65-11.73 3.041-6.35-.791-10.754-4.505-13.064-9.567-.384-.84-.677-1.628-.966-2.818C.202 18.676 0 17.89 0 17.292c.001-.436.111-.773.43-.877.61-.2 1.277.95 1.633 1.409 2.685 3.463 6.431 6.146 11.655 7.343 1.013.232 2.072.181 2.078-.742.006-.8-1.695-1.532-2.152-1.854-2.329-1.638-4.295-3.612-6.014-5.933-1.503-2.032-3.002-4.848-4.008-8.01-.221-.696-1.27-3.241-.075-3.19.534.023.887.623 1.337 1.26 3.782 5.37 9.185 9.635 15.738 12.165 3.27 1.262 8.326 2.752 11.655.89M53.211 11.668c.018 3.641.167 7.152.148 10.829.37-.344.482-.895.669-1.335 1.29-3.043 2.687-6.385 4.009-9.494H70.21c-1.323 6.787-2.766 13.454-4.157 20.174h-7.2c.936-4.85 1.961-9.61 2.969-14.389-.268.192-.386.532-.52.816-2.106 4.44-4.296 9.108-6.458 13.573h-6.162c-.316-4.777-.634-9.553-.891-14.389-.227.183-.244.568-.297.816-.934 4.45-1.823 9.15-2.82 13.573h-7.202c.62-3.14 1.394-6.803 2.153-10.384.721-3.4 1-7.1 3.712-8.752 2.322-1.414 6.156-.933 9.873-1.038" transform="translate(-115 -6361) translate(0 5483) translate(115 878)" />
		<g transform="translate(-115 -6361) translate(0 5483) translate(115 878) translate(71.883 11.602)">
			<path d="M.185.066C3.207.25 6.33-.346 7.905 1.18 9.198 2.43 9.245 5.37 9.538 7.557c.33 2.452.655 4.97.891 7.12.27.038.481-.442.668-.741C13.917 9.43 16.9 4.64 19.783.14h8.166c.267.023-.054.358-.149.519-.737 1.248-1.673 2.596-2.524 3.93-1.908 2.995-3.832 5.95-5.79 9.049-1.963 3.105-3.687 6.02-8.315 6.527-2.771.304-6.173.035-7.571-1.632-.768-.915-1.174-2.473-1.411-4.079C1.499 9.775.762 4.705.11.29.027.182.03.108.185.066" />
		</g>
	</symbol>
	<symbol id="logo-digiweb" viewBox="0 0 75 75">
		<g transform="translate(0.000000,76.000000) scale(0.100000,-0.100000)" stroke="none">

			<path d="M382 511 l3 -235 179 -113 c98 -62 176 -108 173 -101 -2 7 -84 164
-181 348 l-176 335 2 -234z" />
			<path d="M177 395 c-98 -186 -176 -339 -175 -340 4 -3 333 206 348 221 7 7 9
89 8 234 l-3 223 -178 -338z" />
			<path d="M194 156 l-177 -111 177 -3 c97 -1 256 -1 353 0 l177 3 -177 111
-176 112 -177 -112z" />

		</g>
	</symbol>
	<symbol id="cnpj" viewBox="0 0 220 220">
		<g transform="translate(0.000000,220.000000) scale(0.100000,-0.100000)" stroke="none">
			<path d="M811 2106 c-6 -7 -112 -270 -235 -582 l-224 -569 40 -14 c21 -7 40
-11 42 -10 1 2 98 249 215 549 117 300 216 548 220 552 5 6 1057 -255 1118
-277 12 -4 -42 -177 -131 -419 -20 -54 -36 -102 -36 -106 0 -5 15 -17 34 -28
l35 -21 24 72 c14 40 61 175 106 302 44 126 79 237 76 246 -3 10 -11 19 -18
22 -25 9 -1224 297 -1239 297 -9 0 -21 -6 -27 -14z" />
			<path d="M928 1723 c-14 -16 -31 -39 -38 -52 -17 -34 -16 -106 3 -135 29 -44
138 -62 145 -23 3 14 -4 17 -36 17 -49 0 -72 24 -72 74 0 92 69 136 134 85
l26 -20 0 25 c0 34 -35 56 -90 56 -38 0 -51 -5 -72 -27z" />
			<path d="M1146 1701 c-4 -5 -22 -60 -40 -121 -28 -93 -32 -112 -19 -117 22 -9
30 5 56 94 25 88 37 111 37 72 0 -52 33 -195 48 -206 37 -30 47 -17 81 100 37
127 37 132 14 132 -13 0 -24 -22 -44 -85 -29 -94 -27 -96 -54 40 -9 41 -19 78
-23 81 -14 13 -50 20 -56 10z" />
			<path d="M1381 1533 c-47 -156 -47 -153 -19 -153 20 0 26 7 34 38 l9 37 53 -3
c40 -3 58 0 72 13 24 22 35 76 21 103 -9 18 -103 62 -131 62 -5 0 -23 -44 -39
-97z m113 31 c35 -35 1 -91 -48 -78 -30 7 -30 5 -14 55 12 42 35 51 62 23z" />
			<path d="M1600 1486 c-13 -45 -28 -91 -33 -103 -11 -25 -31 -30 -43 -12 -5 8
-10 6 -16 -5 -14 -25 8 -46 48 -46 44 0 48 8 110 221 3 11 -3 18 -19 21 -23 4
-26 -1 -47 -76z" />
			<path d="M761 1344 c-32 -41 -28 -87 11 -119 26 -22 39 -26 66 -21 66 10 97
68 68 124 -18 34 -33 42 -86 42 -30 0 -43 -6 -59 -26z" />
			<path d="M1038 1276 c-26 -19 -39 -62 -28 -90 12 -33 41 -50 127 -76 l72 -22
36 41 c20 22 53 50 72 62 l35 22 -123 38 c-134 41 -165 45 -191 25z" />
			<path d="M1500 1239 c-125 -24 -253 -129 -313 -256 -30 -63 -32 -76 -32 -173
0 -76 5 -120 18 -157 40 -114 156 -230 270 -270 38 -13 81 -18 157 -18 93 0
111 3 164 28 32 15 63 27 70 27 6 -1 60 -66 121 -147 116 -154 145 -183 179
-183 31 0 46 19 46 57 0 26 -24 64 -124 196 l-123 163 38 63 c108 179 82 399
-65 547 -110 110 -253 153 -406 123z m227 -101 c31 -11 76 -41 108 -69 191
-176 145 -481 -91 -591 -204 -96 -436 14 -500 236 -22 80 -14 158 24 240 83
178 273 254 459 184z" />
			<path d="M665 1018 c-51 -30 -62 -99 -22 -136 33 -31 96 -30 125 1 27 29 29
86 5 116 -21 26 -80 36 -108 19z" />
			<path d="M912 917 c-28 -29 -29 -87 -4 -111 14 -12 185 -74 210 -76 1 0 2 38
2 85 l0 84 -69 21 c-88 26 -113 25 -139 -3z" />
			<path d="M33 843 c-11 -29 16 -175 42 -230 15 -30 50 -74 83 -104 51 -47 98
-70 452 -230 217 -98 420 -184 450 -190 92 -19 210 -7 285 30 64 32 151 114
187 178 l18 30 -43 7 c-39 7 -44 5 -67 -26 -75 -100 -151 -142 -255 -142 -149
0 -245 97 -279 282 l-12 66 -390 158 c-214 87 -406 164 -427 173 -35 14 -38
14 -44 -2z" />
		</g>
	</symbol>
	<symbol id="simples" viewBox="0 0 80 80">
		<path style="fill:#ffffff; stroke:none;" d="M19 58C19 61.9649 17.6518 68.9758 20.0278 72.3619C27.075 82.4053 48.9652 78.9071 58 74.6767C72.807 67.7435 78.9983 54.6023 79 39L78 39C77.6436 56.1747 65.8933 69.5882 50 75L50 74C52.9373 72.4718 55.3956 70.7491 57.3472 67.9846C74.054 44.3193 36.2623 36.0077 29.1944 20.9992C26.545 15.3731 31.9205 10.7128 37 9.53704C44.4831 7.80483 50.8515 12.5905 57 16C57 12.7074 57.9661 7.47334 55.9722 4.63812C47.8411 -6.92379 22.9214 2.6447 19.6381 14C13.0365 36.8319 41.9754 37.5798 49.2168 53.0394C52.7416 60.5644 46.2343 66.624 39 66.9529C30.4921 67.3397 25.5272 62.5395 19 58z" />
		<path d="M19 72L19 58C25.7102 64.5524 54.5913 75.11 50.2508 55.0039C46.5689 37.9487 11.6927 36.9167 19.9699 14C21.8252 8.86343 26.249 6.34457 29 2C-2.84379 9.56728 -9.20416 55.6952 19 72z" />
		<path d="M57 5L57 16C50.7594 11.2424 22.1368 3.12946 28.7461 20.9992C34.4373 36.3863 73.5805 43.6063 57.3472 66.9961C55.3757 69.8368 52.7143 71.926 50 74L50 75C82.0401 67.3896 90.5816 17.3169 57 5z" />
	</symbol>
	<symbol id="cnd" viewBox="0 0 300 300">
		<path style="fill:#ffffff; stroke:none;" d="M0 0L0 300L300 300L300 0L0 0z" />
		<path d="M254 235C261.141 235 278.287 238.127 283.566 232.682C287.555 228.568 286 220.226 286 215L286 169C286 163.578 287.699 154.58 283.566 150.318C278.287 144.873 261.141 148 254 148L254 105C253.99 98.5062 253.413 91.114 246.957 87.6883C237.402 82.6182 219.628 86 209 86C202.935 86 196.583 86.6775 192.738 80.956C182.678 65.984 201.587 30.2496 180 23.2245C169 19.6447 154.476 22 143 22L66 22C54.7891 22 35.0229 18.9411 34.044 35C30.4568 93.8438 34 154.033 34 213L34 256C34 261.852 32.8923 269.038 37.3943 273.61C46.5903 282.948 72.8375 278 85 278L202 278C214.34 278 237.474 282.424 247.895 275.03C258.214 267.709 254 245.989 254 235z" />
		<path style="fill:#ffffff; stroke:none;" d="M68 47L68 53C65.9744 53.2743 63.9354 53.5166 62.0108 54.2639C46.001 60.4801 67.7623 70.7422 68 78L57 75L57 82L68 83L68 92L71 92L71 83C86.1564 82.2957 85.7292 66.4778 71 65L71 58L81 60L81 54L71 53L71 47L68 47M91 52L91 55L174 55L174 52L91 52z" />
		<path d="M63 60L68 64L68 58L63 60M71 71L71 78C76.3093 76.3865 75.713 73.0072 71 71z" />
		<path style="fill:#ffffff; stroke:none;" d="M91 76L91 79L174 79L174 76L91 76M55 99L55 102L232 102L232 99L55 99M55 121L55 124L232 124L232 121L55 121M59.1088 149.742C52.9887 152.374 55 162.679 55 168L55 216C55 220.869 53.2961 229.805 58.2284 232.821C62.0878 235.181 68.664 234 73 234L106 234L230 234L267 234C271.224 234 278.025 235.263 281.772 232.972C286.703 229.957 285 220.856 285 216L285 168C285 162.752 287.014 152.145 280.891 149.603C276.732 147.877 270.432 149 266 149L232 149L115 149L76 149C70.9759 149 63.806 147.722 59.1088 149.742z" />
		<path d="M144 199L131 196C123.511 214.862 106.988 186.847 122.044 181.623C125.851 180.302 128.62 183.384 132 184.401C135.578 185.478 139.61 184.148 143 183C136.303 160.255 104.066 168.543 102.174 190C99.8357 216.529 135.917 223.632 144 199M149 171L149 213L162 213L162 192L163 192C169.571 205.893 174.512 213 190 213L190 171L176 171L176 192C167.582 179.522 164.999 171 149 171M197 171L197 213C206.08 213 219.938 215.597 227.985 210.772C239.3 203.986 239.382 179.918 227.96 173.09C220.03 168.349 205.94 171 197 171z" />
		<path style="fill:#ffffff; stroke:none;" d="M211 181L211 203C225.71 200.217 225.709 183.864 211 181z" />
	</symbol>
	<symbol id="nfs-e" viewBox="0 0 300 300">
		<path style="fill:#ffffff; stroke:none;" d="M0 0L0 300L300 300L300 0L0 0z" />
		<path d="M254 235C261.141 235 278.287 238.127 283.566 232.682C287.555 228.568 286 220.226 286 215L286 169C286 163.578 287.699 154.58 283.566 150.318C278.287 144.873 261.141 148 254 148L254 105C253.99 98.5062 253.413 91.114 246.957 87.6883C237.402 82.6182 219.628 86 209 86C202.935 86 196.583 86.6775 192.738 80.956C182.678 65.984 201.587 30.2496 180 23.2245C169 19.6447 154.476 22 143 22L66 22C54.7891 22 35.0229 18.9411 34.044 35C30.4568 93.8438 34 154.033 34 213L34 256C34 261.852 32.8923 269.038 37.3943 273.61C46.5903 282.948 72.8375 278 85 278L202 278C214.34 278 237.474 282.424 247.895 275.03C258.214 267.709 254 245.989 254 235z" />
		<path style="fill:#ffffff; stroke:none;" d="M68 47L68 53C65.9744 53.2743 63.9354 53.5166 62.0108 54.2639C46.001 60.4801 67.7623 70.7422 68 78L57 75L57 82L68 83L68 92L71 92L71 83C86.1564 82.2957 85.7292 66.4778 71 65L71 58L81 60L81 54L71 53L71 47L68 47M91 52L91 55L174 55L174 52L91 52z" />
		<path d="M63 60L68 64L68 58L63 60M71 71L71 78C76.3093 76.3865 75.713 73.0072 71 71z" />
		<path style="fill:#ffffff; stroke:none;" d="M91 76L91 79L174 79L174 76L91 76M55 99L55 102L232 102L232 99L55 99M55 121L55 124L232 124L232 121L55 121M59.1088 149.742C52.9887 152.374 55 162.679 55 168L55 216C55 220.869 53.2961 229.805 58.2284 232.821C62.0878 235.181 68.664 234 73 234L106 234L230 234L267 234C271.224 234 278.025 235.263 281.772 232.972C286.703 229.957 285 220.856 285 216L285 168C285 162.752 287.014 152.145 280.891 149.603C276.732 147.877 270.432 149 266 149L232 149L115 149L76 149C70.9759 149 63.806 147.722 59.1088 149.742z" />
		<path d="M165 199C165.704 214.18 186.85 219.847 197.945 210.606C206.879 203.165 203.027 191.183 193 187.548C188.521 185.924 183.659 184.962 179 184L179 182L202 183C198.416 166.357 165.336 163.734 166.148 183C166.546 192.452 175.752 194.123 182.996 196.443C184.572 196.948 189.626 198.57 187.963 201.15C185.962 204.255 169.487 199 165 199M80 171L80 213L93 213L93 192L94 192C100.571 205.893 105.512 213 121 213L121 171L107 171L107 192C98.5824 179.522 95.9986 171 80 171M128 171L128 213L142 213L142 196L158 196L158 186L142 186L142 181L161 181L161 171L128 171M261 205C253.174 202.687 243.859 207.498 238 201L261 201C260.996 194.576 260.595 188.701 254.957 184.514C246.734 178.407 229.594 181.485 226.573 192C220.165 214.301 250.755 222.565 261 205z" />
		<path style="fill:#ffffff; stroke:none;" d="M238 195L248 195C246.151 189.429 240.648 190.684 238 195z" />
		<path d="M206 193L206 202L224 202L224 193L206 193z" />
	</symbol>
	<symbol id="nfps-e" viewBox="0 0 300 300">
		<path style="fill:#ffffff; stroke:none;" d="M0 0L0 300L300 300L300 0L0 0z" />
		<path d="M254 235C261.141 235 278.287 238.127 283.566 232.682C287.555 228.568 286 220.226 286 215L286 169C286 163.578 287.699 154.58 283.566 150.318C278.287 144.873 261.141 148 254 148L254 105C253.99 98.5062 253.413 91.114 246.957 87.6883C237.402 82.6182 219.628 86 209 86C202.935 86 196.583 86.6775 192.738 80.956C182.678 65.984 201.587 30.2496 180 23.2245C169 19.6447 154.476 22 143 22L66 22C54.7891 22 35.0229 18.9411 34.044 35C30.4568 93.8438 34 154.033 34 213L34 256C34 261.852 32.8923 269.038 37.3943 273.61C46.5903 282.948 72.8375 278 85 278L202 278C214.34 278 237.474 282.424 247.895 275.03C258.214 267.709 254 245.989 254 235z" />
		<path style="fill:#ffffff; stroke:none;" d="M68 47L68 53C65.9744 53.2743 63.9354 53.5166 62.0108 54.2639C46.001 60.4801 67.7623 70.7422 68 78L57 75L57 82L68 83L68 92L71 92L71 83C86.1564 82.2957 85.7292 66.4778 71 65L71 58L81 60L81 54L71 53L71 47L68 47M91 52L91 55L174 55L174 52L91 52z" />
		<path d="M63 60L68 64L68 58L63 60M71 71L71 78C76.3093 76.3865 75.713 73.0072 71 71z" />
		<path style="fill:#ffffff; stroke:none;" d="M91 76L91 79L174 79L174 76L91 76M55 99L55 102L232 102L232 99L55 99M55 121L55 124L232 124L232 121L55 121M59.1088 149.742C52.9887 152.374 55 162.679 55 168L55 216C55 220.869 53.2961 229.805 58.2284 232.821C62.0878 235.181 68.664 234 73 234L106 234L230 234L267 234C271.224 234 278.025 235.263 281.772 232.972C286.703 229.957 285 220.856 285 216L285 168C285 162.752 287.014 152.145 280.891 149.603C276.732 147.877 270.432 149 266 149L232 149L115 149L76 149C70.9759 149 63.806 147.722 59.1088 149.742z" />
		<path d="M186 199C186.704 214.18 207.85 219.847 218.945 210.606C227.879 203.165 224.027 191.183 214 187.548C209.521 185.924 204.659 184.962 200 184L200 182L223 183C219.416 166.357 186.336 163.734 187.148 183C187.546 192.452 196.752 194.123 203.996 196.443C205.572 196.948 210.626 198.57 208.963 201.15C206.962 204.255 190.487 199 186 199M59 171L59 213L72 213L72 192L73 192C79.5708 205.893 84.5116 213 100 213L100 171L86 171L86 192C77.5824 179.522 74.9986 171 59 171M107 171L107 213L121 213L121 196L137 196L137 186L121 186L121 181L140 181L140 171L107 171M146 171L146 213L160 213L160 200C165.188 200 171.361 200.903 175.956 197.991C183.59 193.152 184.401 178.38 176.786 173.009C169.745 168.043 154.303 171 146 171z" />
		<path style="fill:#ffffff; stroke:none;" d="M160 181L160 190C168.832 188.25 169.411 182.305 160 181z" />
		<path d="M282 205C274.174 202.687 264.859 207.498 259 201L282 201C281.996 194.576 281.595 188.701 275.957 184.514C267.734 178.407 250.594 181.485 247.573 192C241.165 214.301 271.755 222.565 282 205z" />
		<path style="fill:#ffffff; stroke:none;" d="M259 195L269 195C267.151 189.429 261.648 190.684 259 195z" />
		<path d="M227 193L227 202L245 202L245 193L227 193z" />
	</symbol>
	<symbol id="logo-sebrae" viewBox="0 0 400 216">
		<path d="M153 0L149 24L276 24L281 0L153 0M145 36L141 60L234 60C241.507 60 261.399 63.5559 267.411 58.9722C271.744 55.6688 272.328 41.2065 273 36L145 36M20 119L0 119C0 124.271 -0.990919 130.515 2.43364 134.957C14.3779 150.449 51.6784 143.693 59.446 127C60.5956 124.53 61.3403 121.698 61.696 119C63.453 105.671 50.1509 102.693 40 100.127C36.6428 99.2777 30.694 98.4925 29.1759 94.7863C26.1222 87.3306 43.9836 81.5278 45 95L65 95C65.4176 89.5164 66.2163 83.9239 62.348 79.3295C50.6224 65.403 16.457 73.1587 9 88.0008C1.26958 103.387 12.9509 110.617 26 114.151C29.9358 115.217 38.2775 116.213 39.3997 121.054C40.5425 125.984 33.8371 128.909 30 129.079C23.289 129.378 20.2007 125.18 20 119M63 143L117 143L120 128L86 128C86.9238 124.431 87.1105 118.276 90.4298 116.028C97.4781 111.255 114.28 120.079 119.836 113.397C122.189 110.567 122.523 104.542 123 101L92 101C92.7586 97.3226 93.0883 90.3145 96.4329 88.0278C103.854 82.9535 121.982 92.4374 127.836 85.3966C130.189 82.5666 130.523 76.5421 131 73L93 73L78.564 74.0278L73.6505 91L63 143M138 73L123 143C139.013 143 162.699 147.085 176.999 138.518C189.072 131.286 193.689 109.763 176 107C187.392 101.601 204.129 82.2934 183.999 74.5633C171.002 69.5721 151.794 73 138 73M204 73L189 143L210 143L215 116C234.278 116 229 127.89 229 143L267.895 142.682L278.39 130.028L305 129L306 143L329 143L317 74L292.379 74.6034L280.95 91L252 139L251 139C251 129.993 255.203 110.389 243 109C246.848 106.552 251.523 105.067 254.786 101.787C261.85 94.6856 262.836 78.5399 251.996 74.6134C238.159 69.6013 218.572 73 204 73M347 73L333 143L387 143L389 128L356 128L358 115L390 115L393 101L362 101L364 87L398 87L400 73L347 73z" />
		<path d="M120 156L116 180L243 180L248 156L120 156M112 192L108 216L201 216C208.507 216 228.399 219.556 234.411 214.972C238.744 211.669 239.328 197.206 240 192L112 192z" />
	</symbol>
	<symbol id="logo-fomento" viewBox="0 0 400 450">
		<path style="fill:#ffffff; stroke:none;" d="M0 0L0 450L400 450L400 0L0 0z" />
		<path d="M200 11L200 88C200 95.5945 197.04 111.095 201.028 117.671C204.82 123.927 217.712 128.35 224 131.86C239.142 140.312 254.047 149.207 269 157.989C275.427 161.764 284.552 164.902 289.682 170.379C294.597 175.626 292 189.249 292 196L292 249C292 256.598 293.713 266.563 291.682 273.896C289.814 280.642 275.579 285.229 270 288.684C254.99 297.979 239.265 306.291 224 315.19C217.611 318.914 208.744 322.283 203.577 327.634C198.559 332.832 203.163 350.477 201 358L199 356C194.177 360.641 176.383 346.677 173 352L172 352L171 350L174 368L171 368L173 372L173 373L171 375L174 376L171 380L171 381C173.816 385.83 171.258 388.084 170 393L171 393L172 391C172.7 399.535 169.785 409.594 172.052 417.895C173.622 423.643 194.174 434.473 200 434.961C204.466 435.335 209.322 431.372 213 429.281C223.378 423.381 233.548 417.062 244 411.306C276.015 393.672 307.187 374.438 339 356.424C349.368 350.554 359.746 344.68 370 338.603C374.128 336.157 380.212 334.02 383.397 330.366C387.525 325.628 385 312.003 385 306L385 240L385 154C385 144.192 388.306 127.213 384.397 118.213C382.59 114.055 375.708 111.704 372 109.579C360.34 102.894 348.691 96.1951 337 89.5756C308.585 73.4865 280.001 57.3422 252 40.5509C235.22 30.4887 218.083 18.5307 200 11z" />
		<path d="M172 419L172 391L171 393L170 393C171.833 388.517 174.534 385.231 171 381L171 380L174 376L171 375L173 373L173 372L171 368L174 368L172 352L173 352L174 350C177.623 353.033 195.331 359.245 199 356L200 356L200 358L201 358L203 328C195.221 328.046 186.502 320.693 180 316.8C163.848 307.13 147.334 297.943 131 288.579C125.393 285.364 112.258 280.952 109.603 274.79C107.538 269.996 109 262.153 109 257L109 216L109 185C109 180.793 107.936 174.8 110.603 171.213C114.649 165.774 124.251 162.449 130 159C145.82 149.509 161.987 140.582 178 131.421C183.532 128.257 196.654 123.571 199.397 117.621C202.877 110.069 200 95.2955 200 87L200 12C182.688 17.4785 165.646 30.7988 150 39.9892C121.465 56.7505 92.3842 72.5794 64 89.6003C52.8014 96.3157 41.2105 102.367 30 109.051C26.1851 111.325 19.4695 113.546 17.0278 117.39C13.5582 122.851 16 135.659 16 142L16 204L16 292C16 302.066 12.5924 319.554 16.6034 328.787C18.1991 332.46 23.7303 334.422 27 336.281C36.0215 341.41 45.0838 346.489 54 351.799C80.1003 367.343 106.608 382.244 133 397.281C145.337 404.31 158.351 414.985 172 419z" />
		<path style="fill:#ffffff; stroke:none;" d="M200 119.067L180 129.719L130 158.4L109.603 172.105L109 191L109 232L109 264L110.028 276.39L124 285.15L158 304.85L188 322.139L201 327.969L221 317.46L271 288.684L291.397 275.621L292 257L292 215L292 184L290.972 171.21L277 161.999L241 141.08L213 125.012L200 119.067z" />
	</symbol>
	<symbol id="logo-sala-empreendedor" viewBox="0 0 145 110">
		<path style="fill:#ffffff; stroke:none;" d="M0 0L0 110L145 110L145 0L0 0z" />
		<path d="M29 19C22.2302 19 9.76768 16.6124 4.43364 21.6528C-1.95748 27.692 0.423811 52.3485 8 56C3.19862 74.6138 19.702 56.0328 29 56C29 66.6268 30.9595 75.1873 43 77L39 99C49.5682 97.3693 56.1545 84.0785 65 78.5995C69.6356 75.7282 76.7531 77 82 77C82.0027 81.0859 81.7169 85.3449 84.0093 88.946C85.8501 91.8377 89.9239 93.4267 90.3927 97.054C90.732 99.6789 87.0579 108.364 92.1489 108.364C99.6093 108.364 103.734 96.1396 111 94.3179C119.606 92.1602 133.833 98.1491 139.991 89.6705C142.236 86.5793 141.994 82.6253 142 79C142.015 70.0513 145.691 50.6588 137.891 44.5139C132.048 39.9104 120.997 42 114 42C115.26 37.7373 115 33.4264 115 29C115 22.3829 115.927 14.8813 112.005 9.09414C104.446 -2.05985 77.8056 3 66 3C51.7923 3 29.4745 -1.18484 29 19z" />
		<path style="fill:#ffffff; stroke:none;" d="M60 14L60 16L65 16C62.0065 19.4607 48.7292 28.558 50.4614 33.6235C51.3827 36.3174 54.829 33.7795 56.0008 32.8326C60.6787 29.0524 64.7483 24.2517 69 20L70 26L71 26L72 14L60 14M82 66C82 57.1393 80.6331 47.4733 90 43L90 31C90 28.0897 90.9117 23.0522 88.9722 20.6034C86.8707 17.95 79.1555 18.1636 77.6034 21.3179C76.1766 24.2174 77 28.8581 77 32C77 39.4739 73.0395 64.5046 82 66M21 28L22 32L27 31L21 35L18 32L13 34L14 39L11 42L14 42L13 47L18 46L18 49L21 46L26 47L25 42L28 42L28 39L25 39L25 34L27 37L29 38L33 37C33.2425 34.4736 32.796 27.7405 29 31C26.2326 28.3264 24.8236 27.1159 21 28z" />
		<path d="M23 28L22 29L22 30L23 31L24 31L25 30L25 29L23 28M28 33L28 34L31 35L31 32L28 33z" />
		<path d="M18.6667 36.3333L19.3333 36.6667L18.6667 36.3333z" />
		<path d="M17 37C14.4457 42.554 19.6846 46.93 23 41L22 41C18.1473 44.1585 17.306 40.6345 17 37z" />
		<path style="fill:#ffffff; stroke:none;" d="M18.2924 38.2554C15.3588 39.6845 17.6678 44.3635 20.5417 42.8279C23.3017 41.3532 21.1587 36.8591 18.2924 38.2554z" />
		<path d="M20.6667 37.3333L21.3333 37.6667L20.6667 37.3333z" />
		<path d="M22.3333 38.6667L22.6667 39.3333L22.3333 38.6667z" />
		<path style="fill:#ffffff; stroke:none;" d="M63 66C65.4718 65.9981 69.3168 66.6208 71.3966 64.9722C74.6014 62.4319 74.4594 42.7419 71.9722 39.6034C67.0122 33.3445 63.0293 41.8647 63.0008 46L63 54L63 66z" />
		<path d="M18 39L21 42L20 39L18 39z" />
		<path d="M23 40L24 41L23 40z" />
		<path style="fill:#ffffff; stroke:none;" d="M53.5988 46.0471C49.9964 48.7331 51.1711 69.5984 57.4012 64.9529C61.0036 62.2669 59.8288 41.4016 53.5988 46.0471M112 52L112 56L113 56L112 52M105 54L108 58L105 54M118 54L117 58L118 58L120 54L118 54M100 58L104 62L100 58M110.015 58.7577C100.469 62.2137 106.058 81.797 113.857 78.9236C122.152 75.8677 122.221 54.3391 110.015 58.7577M124 58L121 62L124 58M98 65L98 67L103 66L98 65M122 65L122 67L127 67L127 65L122 65M103 70L100 74L103 70M121 70L125 73L125 72L121 70M115 80L109 83L114 82L114 83L110 84L110 85L115 85L115 80z" />
	</symbol>



	<symbol id="logo-tce-pr" viewBox="0 0 420 450">
		<path d="M104 5L113.279 39L118.638 53.7855L142 72.1937L183.83 103.635L315 203.985L354.424 233.667L371 247C381.395 241.219 402.134 241.033 414 241C407.988 231.554 391.151 224.899 381.996 218.077C358.675 200.7 336.452 181.333 312.289 165.211C304.082 159.735 296.103 150.4 286 149L288 146L267 131L256.439 120.054L228 98.3989L148 37.6258L104 5z"/>
		<path d="M51 33C49.4051 70.7287 42.7558 107.343 39.1698 145C34.0709 198.543 27.295 252.613 19.7909 306C16.3289 330.63 12.8049 355.264 9.84491 380C8.71478 389.444 4.75155 402.172 9 411L36.0008 385.985L46 378L47 378C47.0036 345.108 54.4646 310.653 58.7184 278C65.7437 224.072 71.1046 169.703 79 116L71.6667 97L57.1667 48L51 33z"/>
		<path d="M50 42L34.2894 168L4 415C10.2212 411.832 7.25568 401.45 8.38503 395C12.028 374.194 12.3264 352.752 16.196 332C19.4576 314.509 19.5997 296.62 22.1142 279.039C29.6514 226.343 36.4957 173.963 42.1659 121C44.1808 102.18 47.5617 83.8698 49.0856 65C49.6763 57.6866 52.9712 49.0808 50 42z"/>
		<path d="M267 130L267 131L288 146L286 149C295.643 151.109 303.48 159.737 311.439 165.211C331.316 178.88 350.815 194.143 369.715 209.116C378.89 216.385 390.641 228.82 402 232C393.468 220.852 378.221 212.524 367 204.105C346.566 188.773 326.516 172.934 306 157.715C294.626 149.277 280.779 133.574 267 130z"/>
		<path d="M54 437C62.8091 439.416 76.0433 431.701 84 427.871C103.702 418.389 124.761 410.723 145 402.452C202.157 379.096 259.133 355.259 316 331.231C343.777 319.495 372.689 309.772 400 297C395.385 295.58 389.785 297.561 385 297.911C370.949 298.941 356.992 301.17 343 302.845C331.463 304.226 318.204 304.071 307.039 307.129C290.005 311.794 273.369 321.08 257 327.796C214.931 345.057 173.433 363.538 131 379.961C102.037 391.17 67.8352 406.689 54 437z"/>
		<path d="M42 444L42 445L58 439L58 438L54 437L59 430L42 444z"/>
	
		<path style="fill:#6c757d; stroke:none;" d="M89 32C86.7717 49.6314 85.0171 67.3545 82.7184 85C81.2136 96.5508 78.1749 109.35 79.0934 121C79.9601 131.994 85.1109 143.478 88.2299 154C93.6434 172.262 98.5842 190.538 103.441 209C108.831 229.492 115.993 249.644 122.036 270C123.815 275.992 129.997 287.688 128.268 293.83C126.156 301.331 112.774 310.578 107.09 315.715C91.8054 329.524 78.0219 344.956 62.7292 358.745C57.5519 363.414 53.2089 369.705 47 373L42 417C52.4634 414.52 62.0845 408.933 72 404.923C78.6256 402.243 86.7285 400.308 92.5448 396.046C104.529 387.265 115.268 374.428 125.826 363.95C135.03 354.817 144.231 345.728 153.562 336.74C157.808 332.65 162.471 326.07 168.04 323.843C181.92 318.295 203.049 319.031 218 317.911C246.396 315.784 277.044 312.874 305 307.675C317.841 305.287 331.044 297.48 343 292.336C361.827 284.236 381.43 277.685 400 269L400 267C390.902 260.792 381.691 249.856 371 246.649C359.406 243.171 339.884 249.006 328 250.7C302.256 254.368 275.664 255.441 250 259.439C233.363 262.031 216.606 263.132 200 265.289C195.332 265.896 184.619 269.97 180.703 266.382C178.095 263.992 178.068 259.412 176.833 256.285C172.157 244.444 170.065 231.522 166.535 219.285C154.273 176.78 142.708 133.768 128.304 92C124.043 79.6434 123.765 64.4135 116.776 53.0903C111.946 45.2636 97.3919 35.5476 89 32z"/>
		
		<path d="M117 53L156.385 183.039L165.91 218.424L176.457 256.285L181.419 267.382L199 265.615L232 262.155L312 252.83L371 246L339.324 221.586L275.271 172.47L169.576 92.3048L117 53z"/>
		<path d="M78 119L60.8449 260L47 373C54.0702 370.734 58.9924 362.813 64.4252 358C80.1991 344.026 94.3524 328.189 109.965 313.999C114.97 309.45 127.259 300.634 128.628 293.83C129.565 289.174 126.05 282.468 124.803 278C120.964 264.238 116.953 250.461 112.17 237C103.577 212.818 96.7717 186.764 90.25 161.985C86.6082 148.149 84.245 131.89 78 119z"/>
		<path d="M94 395L152 371.745L247 332.225L285 316.438L303 308C274.475 309.225 246.375 314.947 218 317.829C202.661 319.388 181.311 317.963 167.093 323.843C158.842 327.256 149.801 338.92 143.551 345.261C128.192 360.844 105.209 376.347 94 395z"/>
		</symbol>
</svg>